<?xml version="1.0" encoding="UTF-8"?>
<svg xmlns="http://www.w3.org/2000/svg" width="256" height="256" viewBox="0 0 48 48" role="img" aria-label="Időjárás app ikon">
  <defs>
    <linearGradient id="g" x1="0" y1="0" x2="48" y2="48" gradientUnits="userSpaceOnUse">
      <stop offset="0%" stop-color="#0ea5e9"/>
      <stop offset="100%" stop-color="#0369a1"/>
    </linearGradient>
  </defs>

  <!-- Nap -->
  <circle cx="20" cy="18" r="7" fill="url(#g)"/>
  <g stroke="url(#g)" stroke-linecap="round" stroke-width="2">
    <line x1="20" y1="6" x2="20" y2="10"/>
    <line x1="20" y1="26" x2="20" y2="30"/>
    <line x1="8"  y1="18" x2="12" y2="18"/>
    <line x1="28" y1="18" x2="32" y2="18"/>
    <line x1="12" y1="10" x2="15" y2="13"/>
    <line x1="25" y1="23" x2="28" y2="26"/>
    <line x1="12" y1="26" x2="15" y2="23"/>
    <line x1="25" y1="13" x2="28" y2="10"/>
  </g>

  <!-- Felhő -->
  <path d="M30 22a6 6 0 0 0-5.8 4.4A6 6 0 0 0 18 32c0 3.3 2.7 6 6 6h12a6 6 0 0 0 0-12 7.5 7.5 0 0 0-6-4z"
        fill="#ffffff" stroke="url(#g)" stroke-width="2" stroke-linejoin="round"/>
  <!-- Helypin -->
  <path d="M24 36c0 4 4 7 4 7s4-3 4-7a4 4 0 1 0-8 0z" fill="url(#g)"/>
  <circle cx="28" cy="36" r="1.6" fill="#ffffff"/>
</svg>
